%TF.GenerationSoftware,KiCad,Pcbnew,9.0.1*%
%TF.CreationDate,2025-10-25T19:21:56-04:00*%
%TF.ProjectId,Portal Box 5.1,506f7274-616c-4204-926f-7820352e312e,rev?*%
%TF.SameCoordinates,PX54c81a0PY7eef1e0*%
%TF.FileFunction,Soldermask,Bot*%
%TF.FilePolarity,Negative*%
%FSLAX46Y46*%
G04 Gerber Fmt 4.6, Leading zero omitted, Abs format (unit mm)*
G04 Created by KiCad (PCBNEW 9.0.1) date 2025-10-25 19:21:56*
%MOMM*%
%LPD*%
G01*
G04 APERTURE LIST*
G04 Aperture macros list*
%AMRoundRect*
0 Rectangle with rounded corners*
0 $1 Rounding radius*
0 $2 $3 $4 $5 $6 $7 $8 $9 X,Y pos of 4 corners*
0 Add a 4 corners polygon primitive as box body*
4,1,4,$2,$3,$4,$5,$6,$7,$8,$9,$2,$3,0*
0 Add four circle primitives for the rounded corners*
1,1,$1+$1,$2,$3*
1,1,$1+$1,$4,$5*
1,1,$1+$1,$6,$7*
1,1,$1+$1,$8,$9*
0 Add four rect primitives between the rounded corners*
20,1,$1+$1,$2,$3,$4,$5,0*
20,1,$1+$1,$4,$5,$6,$7,0*
20,1,$1+$1,$6,$7,$8,$9,0*
20,1,$1+$1,$8,$9,$2,$3,0*%
G04 Aperture macros list end*
%ADD10R,1.700000X1.700000*%
%ADD11C,1.700000*%
%ADD12RoundRect,0.102000X-1.275000X1.275000X-1.275000X-1.275000X1.275000X-1.275000X1.275000X1.275000X0*%
%ADD13C,2.754000*%
%ADD14C,4.620000*%
%ADD15C,2.949000*%
%ADD16RoundRect,0.102000X0.765000X-0.765000X0.765000X0.765000X-0.765000X0.765000X-0.765000X-0.765000X0*%
%ADD17C,1.734000*%
%ADD18C,3.500000*%
%ADD19C,2.904000*%
%ADD20C,3.200000*%
%ADD21C,1.612000*%
%ADD22C,0.650000*%
%ADD23O,2.304000X1.204000*%
%ADD24O,2.004000X1.204000*%
%ADD25RoundRect,0.102000X0.754000X-0.754000X0.754000X0.754000X-0.754000X0.754000X-0.754000X-0.754000X0*%
%ADD26C,1.712000*%
%ADD27C,3.600000*%
%ADD28C,2.304000*%
%ADD29RoundRect,0.102000X-0.754000X-0.754000X0.754000X-0.754000X0.754000X0.754000X-0.754000X0.754000X0*%
%ADD30RoundRect,0.250000X-0.550000X-0.550000X0.550000X-0.550000X0.550000X0.550000X-0.550000X0.550000X0*%
%ADD31C,1.600000*%
%ADD32O,1.304000X2.404000*%
G04 APERTURE END LIST*
D10*
%TO.C,J5*%
X57410000Y74475000D03*
D11*
X59950000Y74475000D03*
X62490000Y74475000D03*
X65030000Y74475000D03*
X67570000Y74475000D03*
X70110000Y74475000D03*
X72650000Y74475000D03*
X75190000Y74475000D03*
%TD*%
D12*
%TO.C,A2*%
X39150000Y21350000D03*
D13*
X25150000Y21350000D03*
X32150000Y21350000D03*
D14*
X52150000Y6250000D03*
X12150000Y6250000D03*
%TD*%
D15*
%TO.C,F1*%
X70300000Y16725000D03*
X70300000Y21350000D03*
X70300000Y32600000D03*
X70300000Y37225000D03*
%TD*%
D16*
%TO.C,U5*%
X21350000Y48190000D03*
D17*
X23890000Y48190000D03*
X26430000Y48190000D03*
X28970000Y48190000D03*
X31510000Y48190000D03*
X34050000Y48190000D03*
X36590000Y48190000D03*
X39130000Y48190000D03*
X41670000Y48190000D03*
X44210000Y48190000D03*
X46750000Y48190000D03*
X49290000Y48190000D03*
X51830000Y48190000D03*
X54370000Y48190000D03*
X56910000Y48190000D03*
X59450000Y48190000D03*
X61990000Y48190000D03*
X64530000Y48190000D03*
X67070000Y48190000D03*
X69610000Y48190000D03*
X72150000Y48190000D03*
X74690000Y48190000D03*
X21350000Y71050000D03*
X23890000Y71050000D03*
X26430000Y71050000D03*
X28970000Y71050000D03*
X31510000Y71050000D03*
X34050000Y71050000D03*
X36590000Y71050000D03*
X39130000Y71050000D03*
X41670000Y71050000D03*
X44210000Y71050000D03*
X46750000Y71050000D03*
X49290000Y71050000D03*
X51830000Y71050000D03*
X54370000Y71050000D03*
X56910000Y71050000D03*
X59450000Y71050000D03*
X61990000Y71050000D03*
X64530000Y71050000D03*
X67070000Y71050000D03*
X69610000Y71050000D03*
X72150000Y71050000D03*
X74690000Y71050000D03*
%TD*%
D18*
%TO.C,A1*%
X102900000Y6000000D03*
X63400000Y6000000D03*
D19*
X90150000Y13300000D03*
X83150000Y13300000D03*
X76150000Y13300000D03*
%TD*%
D10*
%TO.C,J6*%
X101600000Y31350000D03*
D11*
X101600000Y28810000D03*
X101600000Y26270000D03*
X101600000Y23730000D03*
%TD*%
D20*
%TO.C,H4*%
X3920000Y17460000D03*
%TD*%
D21*
%TO.C,BZ1*%
X26275000Y38600000D03*
X26275000Y31000000D03*
%TD*%
D20*
%TO.C,H3*%
X90000000Y66610000D03*
%TD*%
%TO.C,H2*%
X3920000Y66610000D03*
%TD*%
D10*
%TO.C,SW2*%
X36980000Y74450000D03*
D11*
X39520000Y74450000D03*
X42060000Y74450000D03*
X44600000Y74450000D03*
%TD*%
D22*
%TO.C,J2*%
X113432500Y65782500D03*
X113432500Y71562500D03*
D23*
X112932500Y64352500D03*
D24*
X117112500Y64352500D03*
D23*
X112932500Y72992500D03*
D24*
X117112500Y72992500D03*
%TD*%
D25*
%TO.C,J1*%
X106640000Y51550000D03*
D26*
X106640000Y54050000D03*
X106640000Y56050000D03*
X106640000Y58550000D03*
D27*
X109350000Y48480000D03*
X109350000Y61620000D03*
%TD*%
D28*
%TO.C,K1*%
X51350000Y26600000D03*
X51350000Y38600000D03*
X53350000Y32600000D03*
X39150000Y38600000D03*
%TD*%
D20*
%TO.C,H1*%
X105990000Y17460000D03*
%TD*%
D29*
%TO.C,PS1*%
X76477500Y37230000D03*
D26*
X76477500Y42310000D03*
X96797500Y32150000D03*
X96797500Y42310000D03*
%TD*%
D30*
%TO.C,J3*%
X95350000Y73400000D03*
D31*
X95350000Y70860000D03*
X95350000Y68320000D03*
X95350000Y65780000D03*
X95350000Y63240000D03*
X95350000Y60700000D03*
X95350000Y58160000D03*
X102970000Y58160000D03*
X102970000Y60700000D03*
X102970000Y63240000D03*
X102970000Y65780000D03*
X102970000Y68320000D03*
X102970000Y70860000D03*
X102970000Y73400000D03*
%TD*%
D32*
%TO.C,SW1*%
X1275000Y41700000D03*
%TD*%
M02*
