%TF.GenerationSoftware,KiCad,Pcbnew,9.0.1*%
%TF.CreationDate,2025-10-25T19:21:56-04:00*%
%TF.ProjectId,Portal Box 5.1,506f7274-616c-4204-926f-7820352e312e,rev?*%
%TF.SameCoordinates,PX54c81a0PY7eef1e0*%
%TF.FileFunction,Soldermask,Top*%
%TF.FilePolarity,Negative*%
%FSLAX46Y46*%
G04 Gerber Fmt 4.6, Leading zero omitted, Abs format (unit mm)*
G04 Created by KiCad (PCBNEW 9.0.1) date 2025-10-25 19:21:56*
%MOMM*%
%LPD*%
G01*
G04 APERTURE LIST*
G04 Aperture macros list*
%AMRoundRect*
0 Rectangle with rounded corners*
0 $1 Rounding radius*
0 $2 $3 $4 $5 $6 $7 $8 $9 X,Y pos of 4 corners*
0 Add a 4 corners polygon primitive as box body*
4,1,4,$2,$3,$4,$5,$6,$7,$8,$9,$2,$3,0*
0 Add four circle primitives for the rounded corners*
1,1,$1+$1,$2,$3*
1,1,$1+$1,$4,$5*
1,1,$1+$1,$6,$7*
1,1,$1+$1,$8,$9*
0 Add four rect primitives between the rounded corners*
20,1,$1+$1,$2,$3,$4,$5,0*
20,1,$1+$1,$4,$5,$6,$7,0*
20,1,$1+$1,$6,$7,$8,$9,0*
20,1,$1+$1,$8,$9,$2,$3,0*%
G04 Aperture macros list end*
%ADD10C,0.000000*%
%ADD11C,0.010000*%
%ADD12RoundRect,0.250000X0.450000X-0.262500X0.450000X0.262500X-0.450000X0.262500X-0.450000X-0.262500X0*%
%ADD13RoundRect,0.102000X1.200000X-0.800000X1.200000X0.800000X-1.200000X0.800000X-1.200000X-0.800000X0*%
%ADD14C,1.500000*%
%ADD15RoundRect,0.102000X-0.200000X0.650000X-0.200000X-0.650000X0.200000X-0.650000X0.200000X0.650000X0*%
%ADD16R,1.700000X1.700000*%
%ADD17C,1.700000*%
%ADD18RoundRect,0.102000X-1.275000X1.275000X-1.275000X-1.275000X1.275000X-1.275000X1.275000X1.275000X0*%
%ADD19C,2.754000*%
%ADD20C,4.620000*%
%ADD21RoundRect,0.250000X0.850000X0.350000X-0.850000X0.350000X-0.850000X-0.350000X0.850000X-0.350000X0*%
%ADD22RoundRect,0.249997X2.950003X2.650003X-2.950003X2.650003X-2.950003X-2.650003X2.950003X-2.650003X0*%
%ADD23RoundRect,0.250000X-0.250000X-0.475000X0.250000X-0.475000X0.250000X0.475000X-0.250000X0.475000X0*%
%ADD24RoundRect,0.250000X0.250000X0.475000X-0.250000X0.475000X-0.250000X-0.475000X0.250000X-0.475000X0*%
%ADD25R,2.000000X1.100000*%
%ADD26RoundRect,0.225000X-0.375000X0.225000X-0.375000X-0.225000X0.375000X-0.225000X0.375000X0.225000X0*%
%ADD27C,2.949000*%
%ADD28RoundRect,0.225000X-0.225000X-0.375000X0.225000X-0.375000X0.225000X0.375000X-0.225000X0.375000X0*%
%ADD29R,1.100000X2.000000*%
%ADD30RoundRect,0.250000X-0.450000X0.262500X-0.450000X-0.262500X0.450000X-0.262500X0.450000X0.262500X0*%
%ADD31RoundRect,0.102000X0.765000X-0.765000X0.765000X0.765000X-0.765000X0.765000X-0.765000X-0.765000X0*%
%ADD32C,1.734000*%
%ADD33C,3.500000*%
%ADD34C,2.904000*%
%ADD35RoundRect,0.093750X0.156250X0.093750X-0.156250X0.093750X-0.156250X-0.093750X0.156250X-0.093750X0*%
%ADD36RoundRect,0.075000X0.250000X0.075000X-0.250000X0.075000X-0.250000X-0.075000X0.250000X-0.075000X0*%
%ADD37RoundRect,0.150000X-0.587500X-0.150000X0.587500X-0.150000X0.587500X0.150000X-0.587500X0.150000X0*%
%ADD38RoundRect,0.250000X0.475000X-0.250000X0.475000X0.250000X-0.475000X0.250000X-0.475000X-0.250000X0*%
%ADD39C,3.200000*%
%ADD40C,1.612000*%
%ADD41RoundRect,0.250000X-0.262500X-0.450000X0.262500X-0.450000X0.262500X0.450000X-0.262500X0.450000X0*%
%ADD42RoundRect,0.250000X-0.475000X0.250000X-0.475000X-0.250000X0.475000X-0.250000X0.475000X0.250000X0*%
%ADD43RoundRect,0.250000X0.262500X0.450000X-0.262500X0.450000X-0.262500X-0.450000X0.262500X-0.450000X0*%
%ADD44RoundRect,0.093750X-0.156250X-0.093750X0.156250X-0.093750X0.156250X0.093750X-0.156250X0.093750X0*%
%ADD45RoundRect,0.075000X-0.250000X-0.075000X0.250000X-0.075000X0.250000X0.075000X-0.250000X0.075000X0*%
%ADD46RoundRect,0.102000X-0.800000X-1.200000X0.800000X-1.200000X0.800000X1.200000X-0.800000X1.200000X0*%
%ADD47C,0.650000*%
%ADD48O,2.304000X1.204000*%
%ADD49O,2.004000X1.204000*%
%ADD50RoundRect,0.102000X0.754000X-0.754000X0.754000X0.754000X-0.754000X0.754000X-0.754000X-0.754000X0*%
%ADD51C,1.712000*%
%ADD52C,3.600000*%
%ADD53C,2.304000*%
%ADD54RoundRect,0.102000X0.650000X-0.150000X0.650000X0.150000X-0.650000X0.150000X-0.650000X-0.150000X0*%
%ADD55RoundRect,0.102000X0.900000X-1.000000X0.900000X1.000000X-0.900000X1.000000X-0.900000X-1.000000X0*%
%ADD56RoundRect,0.102000X0.800000X1.200000X-0.800000X1.200000X-0.800000X-1.200000X0.800000X-1.200000X0*%
%ADD57C,1.000000*%
%ADD58RoundRect,0.102000X-0.754000X-0.754000X0.754000X-0.754000X0.754000X0.754000X-0.754000X0.754000X0*%
%ADD59RoundRect,0.250000X-0.550000X-0.550000X0.550000X-0.550000X0.550000X0.550000X-0.550000X0.550000X0*%
%ADD60C,1.600000*%
%ADD61RoundRect,0.102000X0.950000X-0.500000X0.950000X0.500000X-0.950000X0.500000X-0.950000X-0.500000X0*%
%ADD62O,1.304000X2.404000*%
%ADD63RoundRect,0.102000X0.650000X-0.750000X0.650000X0.750000X-0.650000X0.750000X-0.650000X-0.750000X0*%
G04 APERTURE END LIST*
D10*
%TO.C,U3*%
G36*
X58400000Y39250750D02*
G01*
X59000000Y39250750D01*
X59000000Y39901750D01*
X59399000Y39901750D01*
X59399000Y38590750D01*
X58001000Y38590750D01*
X58001000Y39901750D01*
X58400000Y39901750D01*
X58400000Y39250750D01*
G37*
G36*
X64400000Y39250750D02*
G01*
X65000000Y39250750D01*
X65000000Y39901750D01*
X65399000Y39901750D01*
X65399000Y38590750D01*
X64001000Y38590750D01*
X64001000Y39901750D01*
X64400000Y39901750D01*
X64400000Y39250750D01*
G37*
G36*
X66250000Y30900750D02*
G01*
X63130000Y30900750D01*
X63130000Y33075750D01*
X63130000Y33088750D01*
X63129000Y33101750D01*
X63127000Y33114750D01*
X63125000Y33127750D01*
X63121000Y33140750D01*
X63118000Y33152750D01*
X63113000Y33165750D01*
X63108000Y33177750D01*
X63103000Y33188750D01*
X63097000Y33200750D01*
X63090000Y33211750D01*
X63082000Y33222750D01*
X63074000Y33232750D01*
X63066000Y33242750D01*
X63057000Y33252750D01*
X63047000Y33261750D01*
X63037000Y33269750D01*
X63027000Y33277750D01*
X63016000Y33285750D01*
X63005000Y33292750D01*
X62993000Y33298750D01*
X62982000Y33303750D01*
X62970000Y33308750D01*
X62957000Y33313750D01*
X62945000Y33316750D01*
X62932000Y33320750D01*
X62919000Y33322750D01*
X62906000Y33324750D01*
X62893000Y33325750D01*
X62880000Y33325750D01*
X61070000Y33325750D01*
X61060000Y33325750D01*
X61049000Y33326750D01*
X61039000Y33327750D01*
X61028000Y33329750D01*
X61018000Y33332750D01*
X61008000Y33335750D01*
X60998000Y33338750D01*
X60989000Y33342750D01*
X60979000Y33347750D01*
X60970000Y33352750D01*
X60961000Y33357750D01*
X60952000Y33363750D01*
X60944000Y33370750D01*
X60936000Y33376750D01*
X60929000Y33384750D01*
X60921000Y33391750D01*
X60915000Y33399750D01*
X60908000Y33407750D01*
X60902000Y33416750D01*
X60897000Y33425750D01*
X60892000Y33434750D01*
X60887000Y33444750D01*
X60883000Y33453750D01*
X60880000Y33463750D01*
X60877000Y33473750D01*
X60874000Y33483750D01*
X60872000Y33494750D01*
X60871000Y33504750D01*
X60870000Y33515750D01*
X60870000Y33525750D01*
X60870000Y34450750D01*
X66250000Y34450750D01*
X66250000Y30900750D01*
G37*
G36*
X60270000Y34450450D02*
G01*
X60270000Y33075750D01*
X60270000Y33062750D01*
X60271000Y33049750D01*
X60273000Y33036750D01*
X60275000Y33023750D01*
X60279000Y33010750D01*
X60282000Y32997750D01*
X60287000Y32985750D01*
X60292000Y32973750D01*
X60297000Y32961750D01*
X60303000Y32950750D01*
X60310000Y32939750D01*
X60318000Y32928750D01*
X60326000Y32917750D01*
X60334000Y32907750D01*
X60343000Y32898750D01*
X60353000Y32889750D01*
X60363000Y32880750D01*
X60373000Y32872750D01*
X60384000Y32865750D01*
X60395000Y32858750D01*
X60407000Y32852750D01*
X60418000Y32846750D01*
X60430000Y32841750D01*
X60443000Y32837750D01*
X60455000Y32833750D01*
X60468000Y32830750D01*
X60481000Y32828750D01*
X60494000Y32826750D01*
X60507000Y32825750D01*
X60520000Y32825750D01*
X62330000Y32825750D01*
X62340000Y32824750D01*
X62351000Y32824750D01*
X62361000Y32822750D01*
X62372000Y32820750D01*
X62382000Y32818750D01*
X62392000Y32815750D01*
X62402000Y32811750D01*
X62411000Y32807750D01*
X62421000Y32803750D01*
X62430000Y32798750D01*
X62439000Y32792750D01*
X62448000Y32787750D01*
X62456000Y32780750D01*
X62464000Y32773750D01*
X62471000Y32766750D01*
X62479000Y32759750D01*
X62485000Y32751750D01*
X62492000Y32742750D01*
X62498000Y32734750D01*
X62503000Y32725750D01*
X62508000Y32715750D01*
X62513000Y32706750D01*
X62517000Y32696750D01*
X62520000Y32687750D01*
X62523000Y32676750D01*
X62526000Y32666750D01*
X62528000Y32656750D01*
X62529000Y32646750D01*
X62530000Y32635750D01*
X62530000Y32625750D01*
X62530000Y30900750D01*
X57150000Y30900750D01*
X57150000Y34450750D01*
X60270000Y34450750D01*
X60270000Y34450450D01*
G37*
D11*
%TO.C,J2*%
X112982500Y71522500D02*
X111732500Y71522500D01*
X111732500Y72222500D01*
X112982500Y72222500D01*
X112982500Y71522500D01*
G36*
X112982500Y71522500D02*
G01*
X111732500Y71522500D01*
X111732500Y72222500D01*
X112982500Y72222500D01*
X112982500Y71522500D01*
G37*
X112982500Y70722500D02*
X111732500Y70722500D01*
X111732500Y71422500D01*
X112982500Y71422500D01*
X112982500Y70722500D01*
G36*
X112982500Y70722500D02*
G01*
X111732500Y70722500D01*
X111732500Y71422500D01*
X112982500Y71422500D01*
X112982500Y70722500D01*
G37*
X112982500Y70222500D02*
X111732500Y70222500D01*
X111732500Y70622500D01*
X112982500Y70622500D01*
X112982500Y70222500D01*
G36*
X112982500Y70222500D02*
G01*
X111732500Y70222500D01*
X111732500Y70622500D01*
X112982500Y70622500D01*
X112982500Y70222500D01*
G37*
X112982500Y69722500D02*
X111732500Y69722500D01*
X111732500Y70122500D01*
X112982500Y70122500D01*
X112982500Y69722500D01*
G36*
X112982500Y69722500D02*
G01*
X111732500Y69722500D01*
X111732500Y70122500D01*
X112982500Y70122500D01*
X112982500Y69722500D01*
G37*
X112982500Y69222500D02*
X111732500Y69222500D01*
X111732500Y69622500D01*
X112982500Y69622500D01*
X112982500Y69222500D01*
G36*
X112982500Y69222500D02*
G01*
X111732500Y69222500D01*
X111732500Y69622500D01*
X112982500Y69622500D01*
X112982500Y69222500D01*
G37*
X112982500Y68722500D02*
X111732500Y68722500D01*
X111732500Y69122500D01*
X112982500Y69122500D01*
X112982500Y68722500D01*
G36*
X112982500Y68722500D02*
G01*
X111732500Y68722500D01*
X111732500Y69122500D01*
X112982500Y69122500D01*
X112982500Y68722500D01*
G37*
X112982500Y68222500D02*
X111732500Y68222500D01*
X111732500Y68622500D01*
X112982500Y68622500D01*
X112982500Y68222500D01*
G36*
X112982500Y68222500D02*
G01*
X111732500Y68222500D01*
X111732500Y68622500D01*
X112982500Y68622500D01*
X112982500Y68222500D01*
G37*
X112982500Y67722500D02*
X111732500Y67722500D01*
X111732500Y68122500D01*
X112982500Y68122500D01*
X112982500Y67722500D01*
G36*
X112982500Y67722500D02*
G01*
X111732500Y67722500D01*
X111732500Y68122500D01*
X112982500Y68122500D01*
X112982500Y67722500D01*
G37*
X112982500Y67222500D02*
X111732500Y67222500D01*
X111732500Y67622500D01*
X112982500Y67622500D01*
X112982500Y67222500D01*
G36*
X112982500Y67222500D02*
G01*
X111732500Y67222500D01*
X111732500Y67622500D01*
X112982500Y67622500D01*
X112982500Y67222500D01*
G37*
X112982500Y66722500D02*
X111732500Y66722500D01*
X111732500Y67122500D01*
X112982500Y67122500D01*
X112982500Y66722500D01*
G36*
X112982500Y66722500D02*
G01*
X111732500Y66722500D01*
X111732500Y67122500D01*
X112982500Y67122500D01*
X112982500Y66722500D01*
G37*
X112982500Y65922500D02*
X111732500Y65922500D01*
X111732500Y66622500D01*
X112982500Y66622500D01*
X112982500Y65922500D01*
G36*
X112982500Y65922500D02*
G01*
X111732500Y65922500D01*
X111732500Y66622500D01*
X112982500Y66622500D01*
X112982500Y65922500D01*
G37*
X112982500Y65122500D02*
X111732500Y65122500D01*
X111732500Y65822500D01*
X112982500Y65822500D01*
X112982500Y65122500D01*
G36*
X112982500Y65122500D02*
G01*
X111732500Y65122500D01*
X111732500Y65822500D01*
X112982500Y65822500D01*
X112982500Y65122500D01*
G37*
%TD*%
D12*
%TO.C,R8*%
X57250000Y44200000D03*
X57250000Y42375000D03*
%TD*%
D13*
%TO.C,D14*%
X54475000Y45225000D03*
X54475000Y42375000D03*
%TD*%
D14*
%TO.C,TP1*%
X59475000Y45250000D03*
%TD*%
D15*
%TO.C,U3*%
X63200000Y39250000D03*
X62200000Y39250000D03*
X61200000Y39250000D03*
X60200000Y39250000D03*
%TD*%
D16*
%TO.C,J5*%
X57410000Y74475000D03*
D17*
X59950000Y74475000D03*
X62490000Y74475000D03*
X65030000Y74475000D03*
X67570000Y74475000D03*
X70110000Y74475000D03*
X72650000Y74475000D03*
X75190000Y74475000D03*
%TD*%
D18*
%TO.C,A2*%
X39150000Y21350000D03*
D19*
X25150000Y21350000D03*
X32150000Y21350000D03*
D20*
X52150000Y6250000D03*
X12150000Y6250000D03*
%TD*%
D21*
%TO.C,U4*%
X96800000Y46440000D03*
D22*
X90500000Y48720000D03*
D21*
X96800000Y51000000D03*
%TD*%
D23*
%TO.C,C15*%
X1970000Y2400000D03*
X3870000Y2400000D03*
%TD*%
D24*
%TO.C,C19*%
X68950000Y55180000D03*
X67050000Y55180000D03*
%TD*%
D25*
%TO.C,D2*%
X30950000Y74957500D03*
X30950000Y76657500D03*
X30950000Y78357500D03*
X26150000Y78357500D03*
X26150000Y76657500D03*
X26150000Y74957500D03*
%TD*%
D26*
%TO.C,D16*%
X18650000Y36075000D03*
X18650000Y32775000D03*
%TD*%
D27*
%TO.C,F1*%
X70300000Y16725000D03*
X70300000Y21350000D03*
X70300000Y32600000D03*
X70300000Y37225000D03*
%TD*%
D23*
%TO.C,C16*%
X17050000Y48100000D03*
X18950000Y48100000D03*
%TD*%
D28*
%TO.C,D6*%
X90250000Y60550000D03*
X93550000Y60550000D03*
%TD*%
D24*
%TO.C,C3*%
X104625000Y52875000D03*
X102725000Y52875000D03*
%TD*%
D29*
%TO.C,D10*%
X5467500Y32811666D03*
X3767500Y32811666D03*
X2067500Y32811666D03*
X2067500Y28011666D03*
X3767500Y28011666D03*
X5467500Y28011666D03*
%TD*%
D23*
%TO.C,C22*%
X77770000Y74460000D03*
X79670000Y74460000D03*
%TD*%
D30*
%TO.C,R2*%
X110100000Y73512500D03*
X110100000Y71687500D03*
%TD*%
D31*
%TO.C,U5*%
X21350000Y48190000D03*
D32*
X23890000Y48190000D03*
X26430000Y48190000D03*
X28970000Y48190000D03*
X31510000Y48190000D03*
X34050000Y48190000D03*
X36590000Y48190000D03*
X39130000Y48190000D03*
X41670000Y48190000D03*
X44210000Y48190000D03*
X46750000Y48190000D03*
X49290000Y48190000D03*
X51830000Y48190000D03*
X54370000Y48190000D03*
X56910000Y48190000D03*
X59450000Y48190000D03*
X61990000Y48190000D03*
X64530000Y48190000D03*
X67070000Y48190000D03*
X69610000Y48190000D03*
X72150000Y48190000D03*
X74690000Y48190000D03*
X21350000Y71050000D03*
X23890000Y71050000D03*
X26430000Y71050000D03*
X28970000Y71050000D03*
X31510000Y71050000D03*
X34050000Y71050000D03*
X36590000Y71050000D03*
X39130000Y71050000D03*
X41670000Y71050000D03*
X44210000Y71050000D03*
X46750000Y71050000D03*
X49290000Y71050000D03*
X51830000Y71050000D03*
X54370000Y71050000D03*
X56910000Y71050000D03*
X59450000Y71050000D03*
X61990000Y71050000D03*
X64530000Y71050000D03*
X67070000Y71050000D03*
X69610000Y71050000D03*
X72150000Y71050000D03*
X74690000Y71050000D03*
%TD*%
D29*
%TO.C,D1*%
X115250000Y2975000D03*
X116950000Y2975000D03*
X118650000Y2975000D03*
X118650000Y7775000D03*
X116950000Y7775000D03*
X115250000Y7775000D03*
%TD*%
D33*
%TO.C,A1*%
X102900000Y6000000D03*
X63400000Y6000000D03*
D34*
X90150000Y13300000D03*
X83150000Y13300000D03*
X76150000Y13300000D03*
%TD*%
D35*
%TO.C,U2*%
X110500000Y68350000D03*
D36*
X110575000Y68887500D03*
D35*
X110500000Y69425000D03*
X108800000Y69425000D03*
D36*
X108725000Y68887500D03*
D35*
X108800000Y68350000D03*
%TD*%
D37*
%TO.C,Q2*%
X91375000Y58600000D03*
X91375000Y56700000D03*
X93250000Y57650000D03*
%TD*%
D16*
%TO.C,J6*%
X101600000Y31350000D03*
D17*
X101600000Y28810000D03*
X101600000Y26270000D03*
X101600000Y23730000D03*
%TD*%
D23*
%TO.C,C9*%
X100620000Y34150000D03*
X102520000Y34150000D03*
%TD*%
D38*
%TO.C,C1*%
X118675000Y9900000D03*
X118675000Y11800000D03*
%TD*%
D24*
%TO.C,C7*%
X110780000Y78470000D03*
X108880000Y78470000D03*
%TD*%
D12*
%TO.C,R3*%
X47450000Y43937500D03*
X47450000Y45762500D03*
%TD*%
D39*
%TO.C,H4*%
X3920000Y17460000D03*
%TD*%
D40*
%TO.C,BZ1*%
X26275000Y38600000D03*
X26275000Y31000000D03*
%TD*%
D41*
%TO.C,R1*%
X108712500Y66675000D03*
X110537500Y66675000D03*
%TD*%
D42*
%TO.C,C23*%
X16325000Y36025000D03*
X16325000Y34125000D03*
%TD*%
D24*
%TO.C,C18*%
X74060000Y50460000D03*
X72160000Y50460000D03*
%TD*%
D38*
%TO.C,C20*%
X95750000Y53050000D03*
X95750000Y54950000D03*
%TD*%
D23*
%TO.C,C8*%
X2050000Y48975000D03*
X3950000Y48975000D03*
%TD*%
D39*
%TO.C,H3*%
X90000000Y66610000D03*
%TD*%
D38*
%TO.C,C5*%
X118725000Y43375000D03*
X118725000Y45275000D03*
%TD*%
D25*
%TO.C,D5*%
X7067500Y74957500D03*
X7067500Y76657500D03*
X7067500Y78357500D03*
X2267500Y78357500D03*
X2267500Y76657500D03*
X2267500Y74957500D03*
%TD*%
D39*
%TO.C,H2*%
X3920000Y66610000D03*
%TD*%
D43*
%TO.C,R11*%
X85612500Y62400000D03*
X83787500Y62400000D03*
%TD*%
D24*
%TO.C,C10*%
X80125000Y78400000D03*
X78225000Y78400000D03*
%TD*%
D44*
%TO.C,U1*%
X101300000Y55587500D03*
D45*
X101225000Y55050000D03*
D44*
X101300000Y54512500D03*
X103000000Y54512500D03*
D45*
X103075000Y55050000D03*
D44*
X103000000Y55587500D03*
%TD*%
D12*
%TO.C,R4*%
X89400000Y56687500D03*
X89400000Y58512500D03*
%TD*%
%TO.C,R5*%
X34210000Y73457500D03*
X34210000Y75282500D03*
%TD*%
D16*
%TO.C,SW2*%
X36980000Y74450000D03*
D17*
X39520000Y74450000D03*
X42060000Y74450000D03*
X44600000Y74450000D03*
%TD*%
D25*
%TO.C,D7*%
X117580000Y75077500D03*
X117580000Y76777500D03*
X117580000Y78477500D03*
X112780000Y78477500D03*
X112780000Y76777500D03*
X112780000Y75077500D03*
%TD*%
D43*
%TO.C,R10*%
X85612500Y60500000D03*
X83787500Y60500000D03*
%TD*%
D46*
%TO.C,D15*%
X102800000Y38075000D03*
X105650000Y38075000D03*
%TD*%
D29*
%TO.C,D12*%
X5342500Y9573333D03*
X3642500Y9573333D03*
X1942500Y9573333D03*
X1942500Y4773333D03*
X3642500Y4773333D03*
X5342500Y4773333D03*
%TD*%
D14*
%TO.C,TP2*%
X19000000Y45600000D03*
%TD*%
D23*
%TO.C,C17*%
X100775000Y44375000D03*
X102675000Y44375000D03*
%TD*%
D47*
%TO.C,J2*%
X113432500Y65782500D03*
X113432500Y71562500D03*
D48*
X112932500Y64352500D03*
D49*
X117112500Y64352500D03*
D48*
X112932500Y72992500D03*
D49*
X117112500Y72992500D03*
%TD*%
D50*
%TO.C,J1*%
X106640000Y51550000D03*
D51*
X106640000Y54050000D03*
X106640000Y56050000D03*
X106640000Y58550000D03*
D52*
X109350000Y48480000D03*
X109350000Y61620000D03*
%TD*%
D38*
%TO.C,C21*%
X97790000Y53045000D03*
X97790000Y54945000D03*
%TD*%
D25*
%TO.C,D11*%
X54200000Y74957500D03*
X54200000Y76657500D03*
X54200000Y78357500D03*
X49400000Y78357500D03*
X49400000Y76657500D03*
X49400000Y74957500D03*
%TD*%
D53*
%TO.C,K1*%
X51350000Y26600000D03*
X51350000Y38600000D03*
X53350000Y32600000D03*
X39150000Y38600000D03*
%TD*%
D54*
%TO.C,J4*%
X70750000Y55150000D03*
X70750000Y55650000D03*
X70750000Y56150000D03*
X70750000Y56650000D03*
X70750000Y57150000D03*
X70750000Y57650000D03*
X70750000Y58150000D03*
X70750000Y58650000D03*
X70750000Y59150000D03*
X70750000Y59650000D03*
X70750000Y60150000D03*
X70750000Y60650000D03*
X70750000Y61150000D03*
X70750000Y61650000D03*
X70750000Y62150000D03*
X70750000Y62650000D03*
X70750000Y63150000D03*
X70750000Y63650000D03*
D55*
X73500000Y53350000D03*
X73500000Y65450000D03*
%TD*%
D56*
%TO.C,D13*%
X103625000Y41560000D03*
X100775000Y41560000D03*
%TD*%
D57*
%TO.C,TP3*%
X99450000Y46525000D03*
X100950000Y48025000D03*
X99450000Y49525000D03*
X100950000Y51025000D03*
%TD*%
D37*
%TO.C,Q1*%
X49475000Y45775000D03*
X49475000Y43875000D03*
X51350000Y44825000D03*
%TD*%
D39*
%TO.C,H1*%
X105990000Y17460000D03*
%TD*%
D24*
%TO.C,C2*%
X24100000Y78350000D03*
X22200000Y78350000D03*
%TD*%
D58*
%TO.C,PS1*%
X76477500Y37230000D03*
D51*
X76477500Y42310000D03*
X96797500Y32150000D03*
X96797500Y42310000D03*
%TD*%
D24*
%TO.C,C4*%
X110575000Y64675000D03*
X108675000Y64675000D03*
%TD*%
D12*
%TO.C,R7*%
X105675000Y40697500D03*
X105675000Y42522500D03*
%TD*%
D28*
%TO.C,D3*%
X48050000Y41900000D03*
X51350000Y41900000D03*
%TD*%
D38*
%TO.C,C13*%
X62200000Y41575000D03*
X62200000Y43475000D03*
%TD*%
D12*
%TO.C,R9*%
X100725000Y37187500D03*
X100725000Y39012500D03*
%TD*%
D59*
%TO.C,J3*%
X95350000Y73400000D03*
D60*
X95350000Y70860000D03*
X95350000Y68320000D03*
X95350000Y65780000D03*
X95350000Y63240000D03*
X95350000Y60700000D03*
X95350000Y58160000D03*
X102970000Y58160000D03*
X102970000Y60700000D03*
X102970000Y63240000D03*
X102970000Y65780000D03*
X102970000Y68320000D03*
X102970000Y70860000D03*
X102970000Y73400000D03*
%TD*%
D24*
%TO.C,C14*%
X47350000Y78350000D03*
X45450000Y78350000D03*
%TD*%
D23*
%TO.C,C6*%
X4925000Y72725000D03*
X6825000Y72725000D03*
%TD*%
D29*
%TO.C,D4*%
X115250000Y36525000D03*
X116950000Y36525000D03*
X118650000Y36525000D03*
X118650000Y41325000D03*
X116950000Y41325000D03*
X115250000Y41325000D03*
%TD*%
D42*
%TO.C,C11*%
X2080000Y25910000D03*
X2080000Y24010000D03*
%TD*%
D25*
%TO.C,D9*%
X87000000Y75007500D03*
X87000000Y76707500D03*
X87000000Y78407500D03*
X82200000Y78407500D03*
X82200000Y76707500D03*
X82200000Y75007500D03*
%TD*%
D61*
%TO.C,SW1*%
X4825000Y43950000D03*
X4825000Y39450000D03*
D62*
X1275000Y41700000D03*
D63*
X2575000Y37400000D03*
X7175000Y37400000D03*
X7175000Y46000000D03*
X2575000Y46000000D03*
%TD*%
D41*
%TO.C,R6*%
X40087500Y76900000D03*
X41912500Y76900000D03*
%TD*%
D29*
%TO.C,D8*%
X5467500Y56050000D03*
X3767500Y56050000D03*
X2067500Y56050000D03*
X2067500Y51250000D03*
X3767500Y51250000D03*
X5467500Y51250000D03*
%TD*%
D38*
%TO.C,C12*%
X64725000Y41525000D03*
X64725000Y43425000D03*
%TD*%
M02*
