M48
; DRILL file {KiCad 9.0.1} date 2025-10-01T11:17:02-0400
; FORMAT={-:-/ absolute / metric / decimal}
; #@! TF.CreationDate,2025-10-01T11:17:02-04:00
; #@! TF.GenerationSoftware,Kicad,Pcbnew,9.0.1
; #@! TF.FileFunction,Plated,1,2,PTH
FMAT,2
METRIC
; #@! TA.AperFunction,Plated,PTH,ViaDrill
T1C0.300
; #@! TA.AperFunction,Plated,PTH,ComponentDrill
T2C0.600
; #@! TA.AperFunction,Plated,PTH,ComponentDrill
T3C0.800
; #@! TA.AperFunction,Plated,PTH,ComponentDrill
T4C0.900
; #@! TA.AperFunction,Plated,PTH,ComponentDrill
T5C1.000
; #@! TA.AperFunction,Plated,PTH,ComponentDrill
T6C1.020
; #@! TA.AperFunction,Plated,PTH,ComponentDrill
T7C1.400
; #@! TA.AperFunction,Plated,PTH,ComponentDrill
T8C1.700
; #@! TA.AperFunction,Plated,PTH,ComponentDrill
T9C1.800
; #@! TA.AperFunction,Plated,PTH,ComponentDrill
T10C1.830
; #@! TA.AperFunction,Plated,PTH,ComponentDrill
T11C2.380
; #@! TA.AperFunction,Plated,PTH,ComponentDrill
T12C3.400
%
G90
G05
T1
X2.067Y49.03
X2.067Y28.012
X2.08Y24.01
X4.825Y39.45
X4.925Y72.725
X17.5Y39.41
X22.2Y78.35
X24.1Y78.35
X30.95Y78.358
X40.087Y76.9
X45.45Y78.35
X48.192Y44.622
X48.6Y46.3
X49.4Y78.358
X51.442Y44.572
X53.52Y45.88
X54.2Y78.358
X57.41Y73.16
X57.55Y34.05
X57.55Y33.3
X57.55Y32.6
X57.55Y31.95
X57.55Y31.3
X58.3Y34.05
X58.3Y33.3
X58.3Y32.6
X58.3Y31.95
X58.3Y31.3
X59.0Y34.05
X59.0Y31.95
X59.0Y31.3
X59.05Y33.3
X59.05Y32.6
X59.655Y44.735
X59.8Y34.05
X59.8Y33.3
X59.8Y32.6
X59.8Y31.95
X59.8Y31.3
X60.24Y41.93
X63.2Y39.325
X63.326Y61.726
X63.6Y34.0
X63.6Y33.35
X63.6Y32.7
X63.6Y32.0
X63.6Y31.25
X64.35Y32.7
X64.35Y32.0
X64.4Y61.7
X64.4Y34.0
X64.4Y33.35
X64.4Y31.25
X64.58Y43.797
X64.68Y41.96
X65.1Y34.0
X65.1Y33.35
X65.1Y32.7
X65.1Y32.0
X65.1Y31.25
X65.437Y61.741
X65.85Y34.0
X65.85Y33.35
X65.85Y32.7
X65.85Y32.0
X65.85Y31.25
X66.58Y41.96
X66.9Y61.7
X66.95Y52.52
X67.005Y44.71
X67.9Y61.7
X68.18Y51.91
X68.8Y61.75
X70.3Y53.3
X71.1Y42.0
X72.23Y56.53
X73.19Y56.5
X73.722Y46.777
X80.132Y78.407
X85.8Y47.9
X87.0Y78.407
X87.8Y51.1
X87.8Y50.2
X87.8Y49.3
X87.8Y48.5
X87.8Y47.2
X87.8Y46.3
X88.8Y51.1
X88.8Y50.2
X88.8Y49.3
X88.8Y48.5
X88.8Y47.2
X88.8Y46.3
X89.8Y51.1
X89.8Y50.2
X89.8Y49.3
X89.8Y48.5
X89.8Y47.2
X89.8Y46.3
X90.9Y51.1
X90.9Y50.2
X90.9Y49.3
X90.9Y48.5
X90.9Y47.2
X90.9Y46.3
X91.31Y58.6
X91.375Y56.7
X92.0Y51.1
X92.0Y50.2
X92.0Y49.3
X92.0Y48.5
X92.0Y47.2
X92.0Y46.3
X92.5Y78.4
X93.0Y51.1
X93.0Y50.2
X93.0Y49.3
X93.0Y48.5
X93.0Y47.2
X93.0Y46.3
X98.8Y53.33
X99.45Y49.525
X99.5Y55.4
X100.725Y38.822
X100.95Y51.025
X100.95Y48.025
X102.82Y47.74
X104.425Y55.025
X105.65Y37.885
X105.675Y42.523
X108.88Y78.47
X110.1Y71.688
X110.1Y70.6
X110.712Y65.0
X110.75Y67.0
X110.8Y78.1
X111.19Y69.719
X113.525Y67.9
X113.6Y66.9
X113.9Y70.4
X115.26Y76.74
X118.65Y41.35
X118.675Y9.9
X118.725Y45.275
T3
X95.35Y73.4
X95.35Y70.86
X95.35Y68.32
X95.35Y65.78
X95.35Y63.24
X95.35Y60.7
X95.35Y58.16
X102.97Y73.4
X102.97Y70.86
X102.97Y68.32
X102.97Y65.78
X102.97Y63.24
X102.97Y60.7
X102.97Y58.16
T4
X13.86Y34.83
X21.46Y34.83
T5
X36.98Y74.45
X39.52Y74.45
X42.06Y74.45
X44.6Y74.45
X57.41Y74.475
X59.95Y74.475
X62.49Y74.475
X65.03Y74.475
X67.57Y74.475
X70.11Y74.475
X72.65Y74.475
X75.19Y74.475
X76.477Y42.31
X76.477Y37.23
X96.797Y42.31
X96.797Y32.15
X101.6Y31.35
X101.6Y28.81
X101.6Y26.27
X101.6Y23.73
X106.64Y58.55
X106.64Y56.05
X106.64Y54.05
X106.64Y51.55
T6
X21.35Y71.05
X21.35Y48.19
X23.89Y71.05
X23.89Y48.19
X26.43Y71.05
X26.43Y48.19
X28.97Y71.05
X28.97Y48.19
X31.51Y71.05
X31.51Y48.19
X34.05Y71.05
X34.05Y48.19
X36.59Y71.05
X36.59Y48.19
X39.13Y71.05
X39.13Y48.19
X41.67Y71.05
X41.67Y48.19
X44.21Y71.05
X44.21Y48.19
X46.75Y71.05
X46.75Y48.19
X49.29Y71.05
X49.29Y48.19
X51.83Y71.05
X51.83Y48.19
X54.37Y71.05
X54.37Y48.19
X56.91Y71.05
X56.91Y48.19
X59.45Y71.05
X59.45Y48.19
X61.99Y71.05
X61.99Y48.19
X64.53Y71.05
X64.53Y48.19
X67.07Y71.05
X67.07Y48.19
X69.61Y71.05
X69.61Y48.19
X72.15Y71.05
X72.15Y48.19
X74.69Y71.05
X74.69Y48.19
T7
X39.15Y38.6
X51.35Y38.6
X51.35Y26.6
X53.35Y32.6
T8
X25.15Y21.35
X32.15Y21.35
X39.15Y21.35
T9
X76.15Y13.3
X83.15Y13.3
X90.15Y13.3
T10
X70.3Y37.225
X70.3Y32.6
X70.3Y21.35
X70.3Y16.725
T11
X109.35Y61.62
X109.35Y48.48
T12
X12.15Y6.25
X52.15Y6.25
T2
G00X1.275Y41.25
M15
G01X1.275Y42.15
M16
G05
G00X112.382Y72.992
M15
G01X113.483Y72.992
M16
G05
G00X112.382Y64.352
M15
G01X113.483Y64.352
M16
G05
G00X116.712Y72.992
M15
G01X117.512Y72.992
M16
G05
G00X116.712Y64.352
M15
G01X117.512Y64.352
M16
G05
M30
